<svg xmlns="http://www.w3.org/2000/svg" version="1.1" xmlns:xlink="http://www.w3.org/1999/xlink" xmlns:svgjs="http://svgjs.com/svgjs" width="1440" height="560" preserveAspectRatio="none" viewBox="0 0 1440 560"><g mask="url(&quot;#SvgjsMask1010&quot;)" fill="none"><rect width="1440" height="560" x="0" y="0" fill="rgba(0, 18, 25, 1)"></rect><path d="M687.73-63.07C595.63-32.94 667.8 207.61 439.86 234.93 211.92 262.25 81.76 469.47-55.88 475.73" stroke="rgba(10, 147, 150, 0.6)" stroke-width="2"></path><path d="M598.99-41.85C444.82 25.73 431.67 498.6 214.49 510.9-2.7 523.2-67.26 367.71-170.02 365.3" stroke="rgba(10, 147, 150, 0.6)" stroke-width="2"></path><path d="M854.58-103.85C713.32-81.89 638.3 256.63 411.58 257.75 184.86 258.87 86.99 92.54-31.42 89.75" stroke="rgba(10, 147, 150, 0.6)" stroke-width="2"></path><path d="M929.19-22.76C766.31-9.51 652.94 318.68 371.95 318.99 90.96 319.3-37.64 125.82-185.29 122.99" stroke="rgba(10, 147, 150, 0.6)" stroke-width="2"></path><path d="M752.29-95.24C619.49-45.14 677.13 352.7 407.56 355.87 137.99 359.04-105.74 211.06-281.9 210.27" stroke="rgba(10, 147, 150, 0.6)" stroke-width="2"></path></g><defs><mask id="SvgjsMask1010"><rect width="1440" height="560" fill="#ffffff"></rect></mask></defs></svg>