<?xml version="1.0" encoding="UTF-8"?><svg id="Layer_2" xmlns="http://www.w3.org/2000/svg" viewBox="0 0 494.03 177.2"><defs><style>.cls-1{fill:#fff;}.cls-2{fill:#e9d8a6;}.cls-2,.cls-3{fill-rule:evenodd;}.cls-3{fill:#ee9b00;}</style></defs><g id="Layer_1-2"><path class="cls-3" d="M148.78,66.37v-25.48c0-6.62-2.49-12.51-7.2-17.04-8.09-7.79-21.05-9.9-29.11-10.45C109.28,5.56,101.59,0,92.63,0c-11.83,0-21.43,9.62-21.43,21.44s9.61,21.43,21.43,21.43c8.82,0,16.37-5.36,19.68-12.96,6.42,.57,14.14,2.31,17.81,5.85,1.46,1.42,2.1,3,2.1,5.13l.05,26.8c.54,6.38,5.53,17.39,19.36,20.91-13.81,3.55-18.82,14.65-19.42,21.62v26.09c0,2.12-.64,3.71-2.1,5.13-4.99,4.82-17.24,6.25-24.04,6.06l-.57,16.51c.3,0,.9,.03,1.78,.03,6.02,0,24.1-.86,34.29-10.68,4.71-4.53,7.2-10.43,7.2-17.04v-25.48c.39-1.97,2.33-6.92,12.15-6.92v-30.61c-9.81,0-11.76-4.96-12.15-6.92M92.63,26.34c-2.7,0-4.91-2.2-4.91-4.91s2.21-4.91,4.91-4.91c2.7,0,4.91,2.21,4.91,4.91,0,2.7-2.21,4.91-4.91,4.91Z"/><path class="cls-2" d="M68.29,134.34c-8.8,0-16.36,5.33-19.66,12.94-6.49-.56-14.13-2.26-17.83-5.83-1.46-1.42-2.11-3.01-2.11-5.13l-.03-26.8c-.56-6.38-5.55-17.38-19.38-20.91,13.83-3.54,18.82-14.64,19.42-21.63v-26.08c0-2.13,.64-3.71,2.12-5.13,4.98-4.83,17.35-6.33,24.03-6.06l.57-16.51c-2.47-.09-24.41-.57-36.07,10.66-4.71,4.53-7.2,10.42-7.2,17.04l.03,25.36c-.01,.3-.75,7.05-12.18,7.05v30.61c9.81,0,11.76,4.95,12.14,6.93v25.48c0,6.61,2.49,12.51,7.2,17.04,8.09,7.8,21.05,9.93,29.11,10.48,3.2,7.83,10.85,13.36,19.83,13.36,11.83,0,21.43-9.61,21.43-21.43s-9.6-21.44-21.43-21.44m0,26.34c-2.71,0-4.91-2.21-4.91-4.91,0-2.71,2.19-4.92,4.91-4.92s4.91,2.21,4.91,4.92-2.21,4.91-4.91,4.91Z"/><g><path class="cls-1" d="M213.63,51.47V0h15.38V51.22c0,6.26-1.08,11.22-3.24,14.88-3.66,6.19-10.27,9.29-19.82,9.29s-15.96-2.5-19.22-7.51c-3.26-5.01-4.89-11.84-4.89-20.49v-1.7h14.53v1.7c.13,5.69,.76,9.69,1.87,12.01,1.11,2.31,3.5,3.47,7.16,3.47s6.02-1.26,7.19-3.79c.7-1.5,1.05-4.03,1.05-7.59Z"/><path class="cls-1" d="M245.13,25.06c3.76-4.79,10.22-7.19,19.37-7.19,5.96,0,11.25,1.18,15.87,3.54,4.63,2.36,6.94,6.82,6.94,13.38v24.96c0,1.73,.03,3.83,.1,6.29,.1,1.86,.38,3.13,.85,3.79,.47,.67,1.16,1.22,2.1,1.65v2.1h-15.48c-.43-1.1-.73-2.13-.9-3.1-.17-.96-.3-2.06-.4-3.29-1.96,2.13-4.23,3.94-6.79,5.44-3.06,1.76-6.52,2.65-10.38,2.65-4.93,0-8.99-1.41-12.21-4.22-3.21-2.81-4.82-6.8-4.82-11.96,0-6.69,2.58-11.53,7.74-14.53,2.83-1.63,6.99-2.8,12.48-3.49l4.84-.6c2.63-.33,4.51-.75,5.64-1.25,2.03-.87,3.04-2.21,3.04-4.04,0-2.23-.77-3.77-2.32-4.62-1.55-.85-3.82-1.27-6.81-1.27-3.36,0-5.74,.83-7.14,2.5-1,1.23-1.66,2.9-2,4.99h-13.73c.3-4.76,1.63-8.67,3.99-11.73Zm10.58,38.24c1.33,1.1,2.96,1.65,4.89,1.65,3.06,0,5.88-.9,8.46-2.7,2.58-1.8,3.92-5.07,4.02-9.83v-5.29c-.9,.57-1.81,1.02-2.72,1.37-.92,.35-2.17,.67-3.77,.97l-3.19,.6c-3,.53-5.14,1.18-6.44,1.95-2.2,1.3-3.29,3.31-3.29,6.04,0,2.43,.68,4.18,2.05,5.24Z"/><path class="cls-1" d="M330.49,34.15c-1.2-2.63-3.54-3.94-7.04-3.94-4.06,0-6.79,1.32-8.19,3.94-.77,1.5-1.15,3.73-1.15,6.69v32.75h-14.43V19.27h13.83v7.94c1.76-2.83,3.43-4.84,4.99-6.04,2.76-2.13,6.34-3.19,10.73-3.19,4.16,0,7.52,.92,10.08,2.75,2.06,1.7,3.63,3.88,4.69,6.54,1.86-3.19,4.18-5.54,6.94-7.04,2.93-1.5,6.19-2.25,9.78-2.25,2.4,0,4.76,.47,7.09,1.4,2.33,.93,4.44,2.56,6.34,4.89,1.53,1.9,2.56,4.23,3.1,6.99,.33,1.83,.5,4.51,.5,8.04l-.1,34.3h-14.58V38.94c0-2.06-.33-3.76-1-5.09-1.27-2.53-3.59-3.79-6.99-3.79-3.93,0-6.64,1.63-8.14,4.89-.77,1.73-1.15,3.81-1.15,6.24v32.4h-14.33V41.18c0-3.23-.33-5.57-1-7.04Z"/><path class="cls-1" d="M437.42,57.61c-.37,3.23-2.05,6.51-5.04,9.83-4.66,5.29-11.18,7.94-19.57,7.94-6.92,0-13.03-2.23-18.32-6.69-5.29-4.46-7.94-11.71-7.94-21.77,0-9.42,2.39-16.64,7.16-21.67,4.78-5.02,10.97-7.54,18.6-7.54,4.53,0,8.6,.85,12.23,2.55,3.63,1.7,6.62,4.38,8.99,8.04,2.13,3.23,3.51,6.97,4.14,11.23,.37,2.5,.52,6.09,.45,10.78h-37.24c.2,5.46,1.91,9.29,5.14,11.48,1.96,1.36,4.33,2.05,7.09,2.05,2.93,0,5.31-.83,7.14-2.5,1-.9,1.88-2.15,2.65-3.74h14.53Zm-14.08-16.67c-.23-3.76-1.37-6.61-3.42-8.56-2.05-1.95-4.59-2.92-7.61-2.92-3.29,0-5.85,1.03-7.66,3.1-1.81,2.06-2.95,4.86-3.42,8.39h22.11Z"/><path class="cls-1" d="M485.2,21.67c4.26,2.73,6.71,7.42,7.34,14.08h-14.23c-.2-1.83-.72-3.28-1.55-4.34-1.56-1.93-4.23-2.9-7.99-2.9-3.1,0-5.3,.48-6.61,1.45-1.32,.97-1.97,2.1-1.97,3.39,0,1.63,.7,2.81,2.1,3.54,1.4,.77,6.34,2.08,14.83,3.94,5.66,1.33,9.9,3.34,12.73,6.04,2.8,2.73,4.19,6.14,4.19,10.23,0,5.39-2.01,9.79-6.02,13.2-4.01,3.41-10.21,5.12-18.6,5.12s-14.87-1.81-18.94-5.42c-4.08-3.61-6.12-8.21-6.12-13.8h14.43c.3,2.53,.95,4.33,1.95,5.39,1.76,1.9,5.02,2.85,9.78,2.85,2.8,0,5.02-.42,6.66-1.25,1.65-.83,2.47-2.08,2.47-3.74s-.67-2.81-2-3.64c-1.33-.83-6.27-2.26-14.83-4.29-6.16-1.53-10.5-3.44-13.03-5.74-2.53-2.26-3.79-5.52-3.79-9.78,0-5.02,1.97-9.34,5.92-12.95,3.94-3.61,9.49-5.42,16.65-5.42s12.33,1.35,16.62,4.04Z"/><path class="cls-1" d="M218.62,146.45h-15.87v28.85h-15.03V101.72h36.09c5.16,.1,9.13,.73,11.91,1.9,2.78,1.17,5.13,2.88,7.06,5.14,1.6,1.86,2.86,3.93,3.79,6.19,.93,2.26,1.4,4.84,1.4,7.74,0,3.49-.88,6.93-2.65,10.31-1.76,3.38-4.68,5.77-8.74,7.16,3.39,1.36,5.8,3.3,7.21,5.82,1.41,2.51,2.12,6.35,2.12,11.51v4.94c0,3.36,.13,5.64,.4,6.84,.4,1.9,1.33,3.29,2.8,4.19v1.85h-16.92c-.47-1.63-.8-2.95-1-3.94-.4-2.06-.62-4.18-.65-6.34l-.1-6.84c-.07-4.69-.92-7.82-2.57-9.39-1.65-1.56-4.73-2.35-9.26-2.35Zm9.34-13.38c3.06-1.4,4.59-4.16,4.59-8.29,0-4.46-1.48-7.45-4.44-8.99-1.66-.87-4.16-1.3-7.49-1.3h-17.87v19.77h17.42c3.46,0,6.06-.4,7.79-1.2Z"/><path class="cls-1" d="M306.63,159.33c-.37,3.23-2.05,6.51-5.04,9.83-4.66,5.29-11.18,7.94-19.57,7.94-6.92,0-13.03-2.23-18.32-6.69-5.29-4.46-7.94-11.71-7.94-21.77,0-9.42,2.39-16.64,7.16-21.67,4.78-5.02,10.97-7.54,18.6-7.54,4.53,0,8.6,.85,12.23,2.55,3.63,1.7,6.62,4.38,8.99,8.04,2.13,3.23,3.51,6.97,4.14,11.23,.37,2.5,.52,6.09,.45,10.78h-37.24c.2,5.46,1.91,9.29,5.14,11.48,1.96,1.36,4.33,2.05,7.09,2.05,2.93,0,5.31-.83,7.14-2.5,1-.9,1.88-2.15,2.65-3.74h14.53Zm-14.08-16.67c-.23-3.76-1.37-6.61-3.42-8.56-2.05-1.95-4.58-2.92-7.61-2.92-3.29,0-5.85,1.03-7.66,3.1-1.81,2.06-2.95,4.86-3.42,8.39h22.11Z"/><path class="cls-1" d="M331.54,101.27v13.13h-14.43v-13.13h14.43Zm0,19.62v54.41h-14.43v-54.41h14.43Z"/><path class="cls-1" d="M392.39,140.41h-14.58c-.27-2.03-.95-3.86-2.05-5.49-1.6-2.2-4.08-3.29-7.44-3.29-4.79,0-8.07,2.38-9.83,7.14-.93,2.53-1.4,5.89-1.4,10.08s.47,7.21,1.4,9.63c1.7,4.53,4.89,6.79,9.59,6.79,3.33,0,5.69-.9,7.09-2.7,1.4-1.8,2.25-4.13,2.55-6.99h14.53c-.33,4.33-1.9,8.42-4.69,12.28-4.46,6.22-11.07,9.34-19.82,9.34s-15.19-2.6-19.32-7.79c-4.13-5.19-6.19-11.93-6.19-20.22,0-9.35,2.28-16.62,6.84-21.82,4.56-5.19,10.85-7.79,18.87-7.79,6.82,0,12.41,1.53,16.75,4.59,4.34,3.06,6.91,8.47,7.71,16.22Z"/><path class="cls-1" d="M451.35,143.35v31.95h-14.53v-33.1c0-2.93-.5-5.29-1.5-7.09-1.3-2.53-3.76-3.79-7.39-3.79s-6.61,1.26-8.56,3.77c-1.95,2.51-2.92,6.1-2.92,10.76v29.45h-14.18V101.97h14.18v26.01c2.06-3.16,4.45-5.37,7.16-6.61,2.71-1.25,5.57-1.87,8.56-1.87,3.36,0,6.42,.58,9.16,1.75,2.75,1.17,5,2.95,6.76,5.34,1.5,2.03,2.41,4.12,2.75,6.26,.33,2.15,.5,5.65,.5,10.51Z"/></g></g></svg>